<?xml version="1.0" encoding="UTF-8" standalone="no"?>
<!DOCTYPE svg PUBLIC "-//W3C//DTD SVG 1.1//EN"
 "http://www.w3.org/Graphics/SVG/1.1/DTD/svg11.dtd">
<!-- Generated by graphviz version 2.40.1 (20161225.0304)
 -->
<!-- Title: %3 Pages: 1 -->
<svg width="414pt" height="218pt"
 viewBox="0.00 0.00 413.68 218.00" xmlns="http://www.w3.org/2000/svg" xmlns:xlink="http://www.w3.org/1999/xlink">
<g id="graph0" class="graph" transform="scale(1 1) rotate(0) translate(4 214)">
<title>%3</title>
<polygon fill="#ffffff" stroke="transparent" points="-4,4 -4,-214 409.6828,-214 409.6828,4 -4,4"/>
<!-- GDAX Server -->
<g id="node1" class="node">
<title>GDAX Server</title>
<ellipse fill="none" stroke="#000000" cx="90.342" cy="-192" rx="72.2875" ry="18"/>
<text text-anchor="middle" x="90.342" y="-188.3" font-family="Times,serif" font-size="14.00" fill="#000000">GDAX Server</text>
</g>
<!-- Node.js ws client -->
<g id="node2" class="node">
<title>Node.js ws client</title>
<ellipse fill="none" stroke="#000000" cx="90.342" cy="-105" rx="90.1842" ry="18"/>
<text text-anchor="middle" x="90.342" y="-101.3" font-family="Times,serif" font-size="14.00" fill="#000000">Node.js ws client</text>
</g>
<!-- GDAX Server&#45;&gt;Node.js ws client -->
<g id="edge1" class="edge">
<title>GDAX Server&#45;&gt;Node.js ws client</title>
<path fill="none" stroke="#000000" d="M90.342,-173.9735C90.342,-162.1918 90.342,-146.5607 90.342,-133.1581"/>
<polygon fill="#000000" stroke="#000000" points="93.8421,-133.0033 90.342,-123.0034 86.8421,-133.0034 93.8421,-133.0033"/>
<text text-anchor="middle" x="159.842" y="-144.8" font-family="Times,serif" font-size="14.00" fill="#000000">OB msgs,heartbeat</text>
</g>
<!-- MQTT broker -->
<g id="node3" class="node">
<title>MQTT broker</title>
<ellipse fill="none" stroke="#000000" cx="196.342" cy="-18" rx="72.5877" ry="18"/>
<text text-anchor="middle" x="196.342" y="-14.3" font-family="Times,serif" font-size="14.00" fill="#000000">MQTT broker</text>
</g>
<!-- Node.js ws client&#45;&gt;MQTT broker -->
<g id="edge2" class="edge">
<title>Node.js ws client&#45;&gt;MQTT broker</title>
<path fill="none" stroke="#000000" d="M111.7927,-87.3943C127.701,-74.3374 149.5717,-56.3869 167.0836,-42.014"/>
<polygon fill="#000000" stroke="#000000" points="169.7756,-44.3324 175.285,-35.2827 165.3346,-38.9215 169.7756,-44.3324"/>
<text text-anchor="middle" x="176.842" y="-57.8" font-family="Times,serif" font-size="14.00" fill="#000000">publish</text>
</g>
<!-- Python MQTT client -->
<g id="node4" class="node">
<title>Python MQTT client</title>
<ellipse fill="none" stroke="#000000" cx="302.342" cy="-105" rx="103.1819" ry="18"/>
<text text-anchor="middle" x="302.342" y="-101.3" font-family="Times,serif" font-size="14.00" fill="#000000">Python MQTT client</text>
</g>
<!-- Python MQTT client&#45;&gt;MQTT broker -->
<g id="edge3" class="edge">
<title>Python MQTT client&#45;&gt;MQTT broker</title>
<path fill="none" stroke="#000000" d="M280.6355,-87.1843C264.8117,-74.1968 243.1896,-56.4504 225.8063,-42.183"/>
<polygon fill="#000000" stroke="#000000" points="227.6075,-39.1334 217.6572,-35.4946 223.1665,-44.5443 227.6075,-39.1334"/>
<text text-anchor="middle" x="290.342" y="-57.8" font-family="Times,serif" font-size="14.00" fill="#000000">subscribe</text>
</g>
</g>
</svg>
