<?xml version="1.0" encoding="UTF-8" standalone="no"?>
<!DOCTYPE svg PUBLIC "-//W3C//DTD SVG 1.1//EN"
 "http://www.w3.org/Graphics/SVG/1.1/DTD/svg11.dtd">
<!-- Generated by graphviz version 2.40.1 (20161225.0304)
 -->
<!-- Title: %3 Pages: 1 -->
<svg width="448pt" height="218pt"
 viewBox="0.00 0.00 448.23 218.00" xmlns="http://www.w3.org/2000/svg" xmlns:xlink="http://www.w3.org/1999/xlink">
<g id="graph0" class="graph" transform="scale(1 1) rotate(0) translate(4 214)">
<title>%3</title>
<polygon fill="#ffffff" stroke="transparent" points="-4,4 -4,-214 444.2313,-214 444.2313,4 -4,4"/>
<!-- GDAX Server -->
<g id="node1" class="node">
<title>GDAX Server</title>
<ellipse fill="none" stroke="#000000" cx="107.8904" cy="-192" rx="72.2875" ry="18"/>
<text text-anchor="middle" x="107.8904" y="-188.3" font-family="Times,serif" font-size="14.00" fill="#000000">GDAX Server</text>
</g>
<!-- (local) ws connection -->
<g id="node2" class="node">
<title>(local) ws connection</title>
<ellipse fill="none" stroke="#000000" cx="107.8904" cy="-105" rx="107.781" ry="18"/>
<text text-anchor="middle" x="107.8904" y="-101.3" font-family="Times,serif" font-size="14.00" fill="#000000">(local) ws connection</text>
</g>
<!-- GDAX Server&#45;&gt;(local) ws connection -->
<g id="edge1" class="edge">
<title>GDAX Server&#45;&gt;(local) ws connection</title>
<path fill="none" stroke="#000000" d="M107.8904,-173.9735C107.8904,-162.1918 107.8904,-146.5607 107.8904,-133.1581"/>
<polygon fill="#000000" stroke="#000000" points="111.3905,-133.0033 107.8904,-123.0034 104.3905,-133.0034 111.3905,-133.0033"/>
<text text-anchor="middle" x="139.8904" y="-144.8" font-family="Times,serif" font-size="14.00" fill="#000000">OB msgs</text>
</g>
<!-- (local) MQTT broker -->
<g id="node3" class="node">
<title>(local) MQTT broker</title>
<ellipse fill="none" stroke="#000000" cx="247.8904" cy="-18" rx="103.9815" ry="18"/>
<text text-anchor="middle" x="247.8904" y="-14.3" font-family="Times,serif" font-size="14.00" fill="#000000">(local) MQTT broker</text>
</g>
<!-- (local) ws connection&#45;&gt;(local) MQTT broker -->
<g id="edge2" class="edge">
<title>(local) ws connection&#45;&gt;(local) MQTT broker</title>
<path fill="none" stroke="#000000" d="M132.1316,-87.3469C146.3787,-77.2126 164.8787,-64.4626 181.8904,-54 189.5642,-49.2805 197.898,-44.4888 205.9779,-40.0071"/>
<polygon fill="#000000" stroke="#000000" points="207.8526,-42.971 214.9438,-35.0991 204.4914,-36.8307 207.8526,-42.971"/>
<text text-anchor="middle" x="232.3904" y="-57.8" font-family="Times,serif" font-size="14.00" fill="#000000">MQTT publish</text>
</g>
<!-- Python MQTT client -->
<g id="node4" class="node">
<title>Python MQTT client</title>
<ellipse fill="none" stroke="#000000" cx="336.8904" cy="-105" rx="103.1819" ry="18"/>
<text text-anchor="middle" x="336.8904" y="-101.3" font-family="Times,serif" font-size="14.00" fill="#000000">Python MQTT client</text>
</g>
<!-- Python MQTT client&#45;&gt;(local) MQTT broker -->
<g id="edge3" class="edge">
<title>Python MQTT client&#45;&gt;(local) MQTT broker</title>
<path fill="none" stroke="#000000" d="M318.4496,-86.9735C305.4423,-74.2586 287.8487,-57.0603 273.4838,-43.0183"/>
<polygon fill="#000000" stroke="#000000" points="275.9053,-40.4908 266.3077,-36.0034 271.012,-45.4965 275.9053,-40.4908"/>
<text text-anchor="middle" x="355.8904" y="-57.8" font-family="Times,serif" font-size="14.00" fill="#000000">MQTT subscribe</text>
</g>
</g>
</svg>
